<svg xmlns="http://www.w3.org/2000/svg" width="60" height="37.88" viewBox="0 0 60 37.88">
  <defs>
    <style>
      .cls-1 {
        fill: #34495e;
        fill-rule: evenodd;
      }
    </style>
  </defs>
  <path id="arrows.svg" class="cls-1" d="M337.32,1644.31a1.866,1.866,0,0,0-1.695-1.1H330a14.991,14.991,0,0,0-29.839-2.23,1.923,1.923,0,0,0,1.868,2.23h3.8a1.824,1.824,0,0,0,1.808-1.45,7.493,7.493,0,0,1,14.861,1.45h-5.625a1.875,1.875,0,0,0-1.7,1.1,1.915,1.915,0,0,0,.255,2.02l9.375,11.39a1.865,1.865,0,0,0,2.884,0l9.375-11.39A1.915,1.915,0,0,0,337.32,1644.31Zm-24.349,6.48h-3.8a1.824,1.824,0,0,0-1.808,1.45,7.493,7.493,0,0,1-14.861-1.45h5.625a1.876,1.876,0,0,0,1.7-1.1,1.915,1.915,0,0,0-.255-2.02l-9.375-11.39a1.865,1.865,0,0,0-2.884,0l-9.375,11.39a1.915,1.915,0,0,0-.255,2.02,1.866,1.866,0,0,0,1.695,1.1H285a14.991,14.991,0,0,0,29.839,2.23A1.923,1.923,0,0,0,312.971,1650.79Z" transform="translate(-277.5 -1628.06)"/>
</svg>
