<svg xmlns="http://www.w3.org/2000/svg" width="60" height="45.75" viewBox="0 0 60 45.75">
  <defs>
    <style>
      .cls-1 {
        fill: #34495e;
        fill-rule: evenodd;
      }
    </style>
  </defs>
  <path id="book.svg" class="cls-1" d="M1120.35,1631.81h-1.56v26.87a5.478,5.478,0,0,1-5.47,5.47c-4.24.01-11.23,0.84-16.18,5.52,8.56-2.09,17.59-.73,22.73.44a2.157,2.157,0,0,0,2.63-2.09v-34.07A2.151,2.151,0,0,0,1120.35,1631.81Zm-54.14,26.87v-26.87h-1.56a2.151,2.151,0,0,0-2.15,2.14v34.07a2.157,2.157,0,0,0,2.63,2.09c5.14-1.17,14.17-2.53,22.73-.44-4.95-4.68-11.94-5.51-16.18-5.52A5.478,5.478,0,0,1,1066.21,1658.68Zm5.47-34.28h0a2.134,2.134,0,0,0-2.14,2.14v32.14a2.16,2.16,0,0,0,2.15,2.15c5,0.01,13.37,1.05,19.14,7.08v-33.63a2.089,2.089,0,0,0-.29-1.09C1085.8,1625.57,1076.69,1624.41,1071.68,1624.4Zm43.78,34.28v-32.14a2.134,2.134,0,0,0-2.14-2.14h0c-5.01.01-14.12,1.17-18.86,8.79a2.089,2.089,0,0,0-.29,1.09v33.63c5.77-6.03,14.14-7.07,19.14-7.08A2.16,2.16,0,0,0,1115.46,1658.68Z" transform="translate(-1062.5 -1624.41)"/>
</svg>
