<svg xmlns="http://www.w3.org/2000/svg" width="59.969" height="52.35" viewBox="0 0 59.969 52.35">
  <defs>
    <style>
      .cls-1 {
        fill: #34495e;
        fill-rule: evenodd;
      }
    </style>
  </defs>
  <path id="hand.svg" class="cls-1" d="M322.4,1815.42c-1.793-.72-2.311-1.16-2.311-1.94,0-.63.476-1.36,1.817-1.36a5.134,5.134,0,0,1,2.1.47,0.677,0.677,0,0,0,.309.08,0.629,0.629,0,0,0,.585-0.4l0.325-.83a0.507,0.507,0,0,0-.278-0.66,12.281,12.281,0,0,0-2.172-.57,0.11,0.11,0,0,1-.1-0.12l0-1.2a0.666,0.666,0,0,0-.677-0.66h-0.585a0.665,0.665,0,0,0-.676.66v1.27a0.186,0.186,0,0,1-.144.15,3.492,3.492,0,0,0-2.928,3.41c0,2.07,1.716,3.01,3.568,3.71,1.481,0.58,2.085,1.17,2.085,2.03,0,0.94-.856,1.6-2.081,1.6a7.506,7.506,0,0,1-2.477-.67,0.717,0.717,0,0,0-.286-0.07,0.641,0.641,0,0,0-.6.42l-0.311.84a0.544,0.544,0,0,0,.278.68,10.61,10.61,0,0,0,2.628.73,0.161,0.161,0,0,1,.122.13v1.27a0.672,0.672,0,0,0,.678.66h0.6a0.672,0.672,0,0,0,.677-0.66v-1.33a0.118,0.118,0,0,1,.111-0.14,3.665,3.665,0,0,0,3.1-3.6C325.766,1817.51,324.76,1816.35,322.4,1815.42Zm-32.3,19.53-9.246-.46a1.679,1.679,0,0,0-1.62,1.2l-1.681,15.24a1.01,1.01,0,0,0,.976,1.31h10.246a1.361,1.361,0,0,0,1.4-1.25l1.125-14.68A1.26,1.26,0,0,0,290.1,1834.95Zm-5.443,15.27a2.555,2.555,0,1,1,2.556-2.55A2.552,2.552,0,0,1,284.66,1850.22Zm36.989-49.43a15.845,15.845,0,1,0,15.864,15.85A15.86,15.86,0,0,0,321.649,1800.79Zm0,28.02a12.175,12.175,0,1,1,12.188-12.17A12.179,12.179,0,0,1,321.649,1828.81Zm12.641,11.35a40.532,40.532,0,0,1-12.641,4.31c-4.117.64-11.862-.91-11.862-2.75,0-.7,6.793,1.72,10.9.62,3.151-.84,2.7-3.78.99-4.17s-11.687-4.04-15.951-4.17a73.783,73.783,0,0,0-9.367,1.09c-0.822.14-1.337,0.12-1.388,0.91-0.239,3.65-.71,11.12-0.966,15.02-0.006.08,0.109,1.19,1.025,0.41,1-.86,2.408-1.8,3.708-1.51,2.04,0.46,19.687,3.69,22.121,3.13,3.483-.81,13.34-6.65,15.231-8.46C339.021,1841.78,336.744,1838.81,334.29,1840.16Z" transform="translate(-277.531 -1800.78)"/>
</svg>
