<svg xmlns="http://www.w3.org/2000/svg" width="60" height="48.97" viewBox="0 0 60 48.97">
  <defs>
    <style>
      .cls-1 {
        fill: #34495e;
        fill-rule: evenodd;
      }
    </style>
  </defs>
  <path id="hat.svg" class="cls-1" d="M704.365,1658.64a7.778,7.778,0,0,1-7.7,0l-17.433-10.69s-1.573-.97-1.573,1.22v10.68c0,5.63,10.233,11.69,22.856,11.69s22.856-6.06,22.856-11.69v-11.28c0-1.76-1.119-.9-1.119-0.9Zm24.042,4.95V1645.6s0.013-.86-0.493-0.57a14.635,14.635,0,0,0-1.75,1.08,1.509,1.509,0,0,0-.313,1.14v16.34a0.491,0.491,0,0,1-.294.4,3.1,3.1,0,1,0,3.134-.01A0.457,0.457,0,0,1,728.407,1663.59Zm1.1-24.15a1.615,1.615,0,0,0,0-2.99l-26.557-13.28a5.128,5.128,0,0,0-4.87,0l-26.556,13.28a1.614,1.614,0,0,0,0,2.99l26.556,16.29a5.074,5.074,0,0,0,4.87,0" transform="translate(-670.531 -1622.56)"/>
</svg>
