<svg xmlns="http://www.w3.org/2000/svg" width="9.625" height="14" viewBox="0 0 9.625 14">
  <defs>
    <style>
      .cls-1 {
        fill: #fff;
        fill-rule: evenodd;
      }
    </style>
  </defs>
  <path id="location.svg" class="cls-1" d="M176.6,3230.48a5.247,5.247,0,0,0-.226-0.56,4.8,4.8,0,0,0-9.194,1.42v0.6c0,0.02.008,0.25,0.021,0.36,0.174,1.39,1.274,2.88,2.1,4.27,0.884,1.49,1.8,2.96,2.71,4.43,0.56-.96,1.118-1.93,1.666-2.86,0.149-.27.322-0.55,0.472-0.81,0.1-.17.29-0.35,0.377-0.51,0.883-1.62,2.306-3.25,2.306-4.86v-0.66A5.05,5.05,0,0,0,176.6,3230.48Zm-4.623,3a1.711,1.711,0,0,1-1.639-1.17,1.583,1.583,0,0,1-.046-0.43v-0.39a1.622,1.622,0,0,1,1.739-1.59,1.759,1.759,0,0,1,1.767,1.79A1.8,1.8,0,0,1,171.973,3233.48Z" transform="translate(-167.188 -3227)"/>
</svg>
