<svg xmlns="http://www.w3.org/2000/svg" width="58.13" height="60" viewBox="0 0 58.13 60">
  <defs>
    <style>
      .cls-1 {
        fill: #34495e;
        fill-rule: evenodd;
      }
    </style>
  </defs>
  <path id="pay.svg" class="cls-1" d="M1117.72,1816.71h-37.24a3.756,3.756,0,0,0-3.76,3.76v26.29a3.756,3.756,0,0,0,3.76,3.76h5a14.029,14.029,0,0,1,.05-4.77h-4.03v-12.58h35.21v12.57h-4.04a14.946,14.946,0,0,1,.23,2.52,14.033,14.033,0,0,1-.18,2.25h5a3.768,3.768,0,0,0,3.76-3.76v-26.28A3.762,3.762,0,0,0,1117.72,1816.71Zm-1.01,8.71H1081.5v-3.95h35.21v3.95Zm-7.03-12.05a0.805,0.805,0,0,0,.33-1.54l-30.7-13.61a3.714,3.714,0,0,0-4.9,1.88l-10.75,24.1a3.711,3.711,0,0,0,1.88,4.9l6.19,2.68a1.181,1.181,0,0,0,1.66-1.07v-10.23a7.1,7.1,0,0,1,7.1-7.1h29.19v-0.01h0Zm-10.58,25.24a9.65,9.65,0,1,0,9.66,9.65A9.649,9.649,0,0,0,1099.1,1838.61Zm2.78,13.46a3.083,3.083,0,0,1-1.61,1.03,0.446,0.446,0,0,0-.39.51c0.01,0.29,0,.57,0,0.86a0.353,0.353,0,0,1-.38.4c-0.31.01-.62,0.01-0.92,0a0.369,0.369,0,0,1-.4-0.42v-0.63c0-.45-0.02-0.48-0.46-0.55a5.821,5.821,0,0,1-1.64-.47,0.472,0.472,0,0,1-.33-0.72c0.09-.32.17-0.64,0.27-0.95,0.11-.37.21-0.4,0.55-0.23a5.312,5.312,0,0,0,1.82.54,2.206,2.206,0,0,0,1.19-.16,0.915,0.915,0,0,0,.22-1.62,2.261,2.261,0,0,0-.67-0.39,13.551,13.551,0,0,1-1.86-.84,2.6,2.6,0,0,1-1.48-2.52,2.753,2.753,0,0,1,2.02-2.56c0.5-.19.51-0.18,0.51-0.69v-0.53c0.01-.39.07-0.45,0.46-0.47h0.36c0.84,0,.84,0,0.84.84,0,0.59,0,.59.59,0.67a5.471,5.471,0,0,1,1.29.39,0.359,0.359,0,0,1,.24.5c-0.1.36-.19,0.72-0.32,1.07-0.11.33-.22,0.38-0.54,0.23a4.017,4.017,0,0,0-2.04-.4,1.447,1.447,0,0,0-.54.11,0.77,0.77,0,0,0-.19,1.37,4.043,4.043,0,0,0,.88.51,14.623,14.623,0,0,1,1.62.73A2.893,2.893,0,0,1,1101.88,1852.07Z" transform="translate(-1063.34 -1797.91)"/>
</svg>
