<svg xmlns="http://www.w3.org/2000/svg" width="13.968" height="14" viewBox="0 0 13.968 14">
  <defs>
    <style>
      .cls-1 {
        fill: #fff;
        fill-rule: evenodd;
      }
    </style>
  </defs>
  <path id="phone.svg" class="cls-1" d="M179.171,3166.05a0.679,0.679,0,0,1-.207.59L177,3168.59a1.125,1.125,0,0,1-.348.26,1.774,1.774,0,0,1-.422.13,0.427,0.427,0,0,0-.089.01h-0.192a7.293,7.293,0,0,1-.911-0.09,6.849,6.849,0,0,1-1.539-.48,13.028,13.028,0,0,1-2.065-1.13,15.7,15.7,0,0,1-2.457-2.07,17.188,17.188,0,0,1-1.717-1.96,13.628,13.628,0,0,1-1.095-1.73,9.423,9.423,0,0,1-.622-1.43,7.545,7.545,0,0,1-.281-1.12,3.638,3.638,0,0,1-.059-0.73q0.015-.27.015-0.3a1.593,1.593,0,0,1,.133-0.42,1.166,1.166,0,0,1,.252-0.35l1.968-1.97a0.677,0.677,0,0,1,.474-0.2,0.515,0.515,0,0,1,.34.11,0.933,0.933,0,0,1,.252.27l1.584,3.01a0.732,0.732,0,0,1,.074.52,0.915,0.915,0,0,1-.252.47l-0.725.73a0.251,0.251,0,0,0-.052.09,0.439,0.439,0,0,0-.022.12,2.8,2.8,0,0,0,.266.71,7.007,7.007,0,0,0,.548.86,9.293,9.293,0,0,0,1.051,1.18,9.165,9.165,0,0,0,1.184,1.06,7.318,7.318,0,0,0,.866.56,1.988,1.988,0,0,0,.532.21l0.185,0.04a0.662,0.662,0,0,0,.1-0.02,0.332,0.332,0,0,0,.1-0.06l0.844-.86a0.935,0.935,0,0,1,.621-0.23,0.767,0.767,0,0,1,.4.09h0.015l2.856,1.69A0.719,0.719,0,0,1,179.171,3166.05Z" transform="translate(-165.188 -3155)"/>
</svg>
