<svg xmlns="http://www.w3.org/2000/svg" width="57.281" height="60" viewBox="0 0 57.281 60">
  <defs>
    <style>
      .cls-1 {
        fill: #34495e;
        fill-rule: evenodd;
      }
    </style>
  </defs>
  <path id="review.svg" class="cls-1" d="M715.324,1849.26l-1.914-6.77c-14.322,12.67-26.234,1-28.406-2.35l1.1-.68a1.578,1.578,0,0,0-.143-2.76l-9.905-4.78a1.61,1.61,0,0,0-1.508.08,1.575,1.575,0,0,0-.747,1.32l-0.169,11a1.572,1.572,0,0,0,.8,1.39,1.542,1.542,0,0,0,1.6-.03l0.528-.32c9.081,14.74,29.923,16.18,41.2,6.56A4.02,4.02,0,0,1,715.324,1849.26Zm-33.442-17.29c-1.165-6.32,3.025-19.16,16.933-20.68v0.17a1.585,1.585,0,0,0,.817,1.38,1.556,1.556,0,0,0,.755.19,1.606,1.606,0,0,0,.847-0.24l9.267-5.93a1.559,1.559,0,0,0,.726-1.32,1.578,1.578,0,0,0-.725-1.33l-9.268-5.92a1.531,1.531,0,0,0-.847-0.25,1.556,1.556,0,0,0-.755.19,1.583,1.583,0,0,0-.817,1.38v1.74c-13.509-.06-27.876,12.72-26.95,29.96,0,0,2.091-2.03,3.513-2.03C676.575,1829.28,676.789,1829.51,681.882,1831.97Zm47.231,8.7a1.565,1.565,0,0,0-1.085-1.18l-1.133-.35a28.614,28.614,0,0,0-13.289-34.45,3.94,3.94,0,0,1-1.768,4.27l-5.351,3.42c4.74,1.37,15.575,9.82,10.886,23.89l-0.678-.21a1.766,1.766,0,0,0-.455-0.06,1.54,1.54,0,0,0-1.1.45,1.568,1.568,0,0,0-.412,1.55l2.989,10.59a1.563,1.563,0,0,0,1.058,1.07,1.415,1.415,0,0,0,.454.07,1.564,1.564,0,0,0,1.024-.38l8.346-7.16A1.583,1.583,0,0,0,729.113,1840.67Z" transform="translate(-671.844 -1798.03)"/>
</svg>
