<?xml version="1.0" encoding="utf-8"?>
<!-- Generator: Adobe Illustrator 21.0.0, SVG Export Plug-In . SVG Version: 6.00 Build 0)  -->
<svg version="1.1" id="Layer_1" xmlns="http://www.w3.org/2000/svg" xmlns:xlink="http://www.w3.org/1999/xlink" x="0px" y="0px"
	 viewBox="0 0 400 400" style="enable-background:new 0 0 400 400;" xml:space="preserve">
<style type="text/css">
	.st0{fill:#1B1A1E;}
	.st1{fill:#FFFFFF;}
</style>
<g>
	<path class="st0" d="M327,342H73c-8.3,0-15-6.7-15-15V73c0-8.3,6.7-15,15-15h254c8.3,0,15,6.7,15,15v254
		C342,335.3,335.3,342,327,342z"/>
</g>
<path class="st1" d="M258.4,153.1L153.1,258.4c-2,2-5.2,2-7.2,0l-4.2-4.2c-2-2-2-5.2,0-7.2l105.3-105.3c2-2,5.2-2,7.2,0l4.2,4.2
	C260.4,147.8,260.4,151.1,258.4,153.1z"/>
<path class="st1" d="M246.9,258.4L141.6,153.1c-2-2-2-5.2,0-7.2l4.2-4.2c2-2,5.2-2,7.2,0l105.3,105.3c2,2,2,5.2,0,7.2l-4.2,4.2
	C252.2,260.4,248.9,260.4,246.9,258.4z"/>
</svg>
