<svg id="Capa_1" data-name="Capa 1" xmlns="http://www.w3.org/2000/svg" viewBox="0 0 512 512"><defs><style>.cls-1{fill:#fd526a;}</style></defs><title>behance-red</title><path class="cls-1" d="M215.45,213.31c0-19.59-13.33-19.59-13.33-19.59H147.25v42.05h51.47C207.62,235.77,215.45,232.93,215.45,213.31Z" transform="translate(0 0)"/><path class="cls-1" d="M342.57,235.77c-29.09,0-33.15,29-33.15,29h61.89S371.69,235.77,342.57,235.77Z" transform="translate(0 0)"/><path class="cls-1" d="M202.12,264.81H147.28v50.38h48.58c.82,0,2,0,3.5,0,7.81-.2,22.64-2.42,22.64-24.48C222,264.56,202.12,264.81,202.12,264.81Z" transform="translate(0 0)"/><path class="cls-1" d="M256,0C114.84,0,0,114.84,0,256S114.84,512,256,512,512,397.15,512,256,397.17,0,256,0Zm45.3,171.33H379v23.21H301.3ZM262,293.05c0,57.51-59.87,55.63-59.87,55.63h-98V160.23h98c29.81,0,53.33,16.47,53.33,50.19s-28.75,35.85-28.75,35.85C264.6,246.27,262,293.05,262,293.05ZM407.44,290H309.78c0,35,33.17,32.81,33.17,32.81,31.31,0,30.21-20.27,30.21-20.27h33.19c0,53.81-64.49,50.1-64.49,50.1-77.37,0-72.4-72-72.4-72s-.07-72.41,72.4-72.41C418.13,208.16,407.42,290,407.44,290Z" transform="translate(0 0)"/></svg>