<svg id="Capa_1" data-name="Capa 1" xmlns="http://www.w3.org/2000/svg" viewBox="0 0 438.4 427.94"><defs><style>.cls-1{fill:#fff;}</style></defs><title>github-white</title><path class="cls-1" d="M409.1,114.6a218.14,218.14,0,0,0-79.8-79.8Q278.9,5.4,219.3,5.4T109.2,34.8a218.14,218.14,0,0,0-79.8,79.8Q0,165,0,224.6q0,71.7,41.8,128.9t108.1,79.2c5.1,1,8.9.3,11.4-2a11.06,11.06,0,0,0,3.7-8.6c0-.6,0-5.7-.1-15.4s-.1-18.2-.1-25.4l-6.6,1.1a80.49,80.49,0,0,1-15.8,1,125.37,125.37,0,0,1-19.8-2,43.4,43.4,0,0,1-19.1-8.6,36.36,36.36,0,0,1-12.6-17.6L88,348.6A72.44,72.44,0,0,0,79,334c-4.1-5.3-8.2-8.9-12.4-10.8l-2-1.4a23.69,23.69,0,0,1-3.7-3.4,18.14,18.14,0,0,1-2.6-4c-.6-1.3-.1-2.4,1.4-3.3S64,310,68,310l5.7.9c3.8.8,8.5,3,14.1,6.9a46.62,46.62,0,0,1,13.8,14.8c4.4,7.8,9.7,13.8,15.8,17.8s12.4,6.1,18.7,6.1a85.33,85.33,0,0,0,16.3-1.4,58.39,58.39,0,0,0,12.8-4.3c1.7-12.8,6.4-22.6,14-29.4a204,204,0,0,1-29.3-5.1,117.35,117.35,0,0,1-26.8-11.1,77,77,0,0,1-23-19.1q-9.15-11.4-15-30c-3.9-12.4-5.9-26.6-5.9-42.8q0-34.5,22.6-58.8c-7-17.3-6.4-36.7,2-58.2q8.25-2.55,24.6,3.9c10.9,4.3,18.8,8,23.8,11s9.1,5.6,12.1,7.7a206.61,206.61,0,0,1,109.6,0l10.8-6.8A150.07,150.07,0,0,1,311,99.5c10.1-3.8,17.8-4.9,23.1-3.1,8.6,21.5,9.3,40.9,2.3,58.2,15,16.2,22.6,35.8,22.6,58.8,0,16.2-2,30.5-5.9,43s-8.9,22.5-15.1,30a80,80,0,0,1-23.1,19,114.75,114.75,0,0,1-26.8,11.1,188.89,188.89,0,0,1-29.3,5.1c9.9,8.6,14.8,22.1,14.8,40.5v60.2a11.47,11.47,0,0,0,3.6,8.6c2.4,2.3,6.1,3,11.3,2q66.3-22.05,108.1-79.2,41.85-57.3,41.8-128.9Q438.55,164.95,409.1,114.6Z" transform="translate(0 -5.4)"/></svg>