<svg id="Capa_1" data-name="Capa 1" xmlns="http://www.w3.org/2000/svg" viewBox="0 0 49.6 49.6"><defs><style>.cls-1{fill:#fd526a;}</style></defs><title>twitter-red</title><path class="cls-1" d="M24.8,0A24.8,24.8,0,1,0,49.6,24.8,24.8,24.8,0,0,0,24.8,0ZM35.9,19.1v.7c0,7.6-5.7,16.3-16.3,16.3a15.93,15.93,0,0,1-8.8-2.6,6.15,6.15,0,0,0,1.4.1,11.69,11.69,0,0,0,7.1-2.4,5.58,5.58,0,0,1-5.3-4,3.75,3.75,0,0,0,1.1.1,7.72,7.72,0,0,0,1.5-.2A5.7,5.7,0,0,1,12,21.5v-.1a5.94,5.94,0,0,0,2.6.7,5.78,5.78,0,0,1-2.5-4.8,6,6,0,0,1,.8-2.9,16.24,16.24,0,0,0,11.8,6,5.7,5.7,0,0,1-.1-1.3,5.7,5.7,0,0,1,5.7-5.7,6,6,0,0,1,4.2,1.8,11.25,11.25,0,0,0,3.6-1.4A5.69,5.69,0,0,1,35.6,17a9,9,0,0,0,3.3-.9A14.21,14.21,0,0,1,35.9,19.1Z"/></svg>